<svg xmlns="http://www.w3.org/2000/svg" viewBox="0 0 24 24" fill="none">
  <defs>
    <linearGradient id="cpmsGradient" x1="0" y1="0" x2="1" y2="1">
      <stop offset="0%" stop-color="#1e63d5" />
      <stop offset="100%" stop-color="#4b8dff" />
    </linearGradient>
  </defs>
  <rect width="24" height="24" rx="7" fill="url(#cpmsGradient)" />
  <path
    d="M7 16.5c0-4.7 3.8-8.5 8.5-8.5H19v3h-3.5a5.5 5.5 0 0 0 0 11H18v3H15.5C10.8 25 7 21.2 7 16.5v0z"
    fill="#f8fbff"
    transform="translate(0 -1)"
  />
  <path
    d="M19 8.5V5H8.5C4.9 5 2 7.9 2 11.5S4.9 18 8.5 18H12v-3H8.5a3.5 3.5 0 0 1 0-7H19z"
    fill="#f8fbff"
  />
</svg>
